<svg xmlns="http://www.w3.org/2000/svg" viewBox="0 0 318.24 309.02"><defs><style>.cls-1{fill:#ffffff;}</style></defs><title>logo</title><g id="Camada_2" data-name="Camada 2"><g id="Camada_1-2" data-name="Camada 1"><g id="Camada_1-2-2" data-name="Camada 1-2"><path class="cls-1" d="M100.26.68c-150.5-9.44-89.06,82-81.32,89.77,8.39,8.45,19.57,26,68.5,35.43,0,0,22.27-50.68,77.28-48.63,0,0,6.07,66.06-38.81,77.26,44.88,11.19,38.79,77.25,38.79,77.25-55,2.06-77.28-48.63-77.28-48.63-48.93,9.45-60.11,27-68.5,35.44-7.74,7.8-69.18,99.21,81.32,89.76s218-153.82,218-153.82S250.77,10.13,100.26.68ZM242,174a19.57,19.57,0,1,1,19.57-19.57A19.57,19.57,0,0,1,242,174Z"/></g></g></g></svg>