<svg xmlns="http://www.w3.org/2000/svg" viewBox="0 0 822.88 517.7"><defs><style>.cls-1{fill:#0066bd;}</style></defs><title>Ativo 3</title><g id="Camada_2" data-name="Camada 2"><g id="Camada_1-2" data-name="Camada 1"><path class="cls-1" d="M147,353.64a16.71,16.71,0,0,0-16.71,15.87,5.08,5.08,0,0,0-.05.88v-.92a81.86,81.86,0,1,0-.05,132.07,4.18,4.18,0,0,1,0-.5,10.41,10.41,0,0,1,.07-1.26v2.54a16.62,16.62,0,0,0,16.57,15.38,16.85,16.85,0,0,0,16.92-16.61V370.39A16.75,16.75,0,0,0,147,353.64ZM84.11,481.79a46.11,46.11,0,1,1,46.11-46.11A46.1,46.1,0,0,1,84.11,481.79Z"/><path class="cls-1" d="M624.82,353.64a16.7,16.7,0,0,0-16.7,15.87,5.08,5.08,0,0,0,0,.88v-.92A81.86,81.86,0,1,0,608,501.54a4.18,4.18,0,0,1,0-.5,10.41,10.41,0,0,1,.07-1.26v2.54a16.62,16.62,0,0,0,16.56,15.38,16.85,16.85,0,0,0,16.93-16.61V370.39A16.75,16.75,0,0,0,624.82,353.64ZM562,481.79a46.11,46.11,0,1,1,46.11-46.11A46.1,46.1,0,0,1,562,481.79Z"/><path class="cls-1" d="M822.88,435.76l0,2.36-.76,60.66a18.6,18.6,0,0,1-36.36,5.51,18.34,18.34,0,0,1-.83-5.51l.05-1.19L787,438.33l.09-2.76a46.06,46.06,0,0,0-46-46.07c-.9,0-1.78,0-2.67.07-23.77,1.36-41.94,21.88-41.94,45.68v63.53a18.13,18.13,0,0,1-.71,5.08A18.61,18.61,0,0,1,677,517.35c-10-.48-17.68-9.22-17.68-19.25V373.26c0-10,7.66-18.79,17.69-19.28a18.62,18.62,0,0,1,18.85,13.66,81.79,81.79,0,0,1,127.07,68.12Z"/><path class="cls-1" d="M284.69,370.94a17.3,17.3,0,0,1-17.31,17.31v.25a41.45,41.45,0,0,0-4.51-.25c-21.74,0-39.69,16.69-42.44,38.34a17.29,17.29,0,0,0-.46,4.51v67.53h0c0,.3,0,.58,0,.87a18.21,18.21,0,0,1-36.42,0V371.84a18.21,18.21,0,0,1,35.6-5.38,78.26,78.26,0,0,1,43.06-12.82c1.24,0,2.45,0,3.66.07H266c.46,0,.91.06,1.37.09,1.49.11,3,.25,4.44.43h0A17.27,17.27,0,0,1,284.69,370.94Z"/><path class="cls-1" d="M456.35,433.3h-.29c.2,2.19.29,4.42.29,6.68a77.71,77.71,0,1,1-155.42,0c0-2.26.09-4.49.29-6.68h-.29v-62a17.66,17.66,0,0,1,35.32,0l0,.9-.05,2.68-1.29,58.42a43.75,43.75,0,1,0,87.49,0l-1.28-58.42-.05-2.68,0-.9a17.66,17.66,0,0,1,35.32,0Z"/><path class="cls-1" d="M352.56.68c-150.5-9.44-89.06,82-81.32,89.77,8.39,8.45,19.57,26,68.5,35.43,0,0,22.27-50.68,77.28-48.63,0,0,6.07,66.06-38.81,77.26C423.09,165.7,417,231.76,417,231.76c-55,2.06-77.28-48.63-77.28-48.63-48.93,9.45-60.11,27-68.5,35.44-7.74,7.8-69.18,99.21,81.32,89.76s218-153.82,218-153.82S503.07,10.13,352.56.68ZM494.3,174a19.57,19.57,0,1,1,19.57-19.57A19.57,19.57,0,0,1,494.3,174Z"/></g></g></svg>